<svg xmlns="http://www.w3.org/2000/svg" xmlns:xlink="http://www.w3.org/1999/xlink" width="290" height="274" viewBox="0 0 290 274">
  <defs>
    <clipPath id="clip-path">
      <rect id="Rectangle_2" data-name="Rectangle 2" width="290" height="274"/>
    </clipPath>
    <linearGradient id="linear-gradient" x1="0.5" y1="1" x2="0.5" gradientUnits="objectBoundingBox">
      <stop offset="0" stop-color="gray" stop-opacity="0.251"/>
      <stop offset="0.54" stop-color="gray" stop-opacity="0.122"/>
      <stop offset="1" stop-color="gray" stop-opacity="0.102"/>
    </linearGradient>
  </defs>
  <g id="_1" data-name="1" clip-path="url(#clip-path)">
    <rect id="Rectangle_1" data-name="Rectangle 1" width="290" height="274" fill="#fff"/>
    <g id="undraw_preferences_uuo2_1_" data-name="undraw_preferences_uuo2 (1)" transform="translate(23.173 45.301)">
      <path id="Path_3452" data-name="Path 3452" d="M285.118,170.191q-1.138.995-2.331,1.932c-.133.108-.271.224-.4.32a81.91,81.91,0,0,1-8.9,5.984c-3.551,2.089-7.258,3.989-11.015,5.782a183.1,183.1,0,0,1-17.327,7.273l-.266.1q-3.892,1.38-7.871,2.548l-.047.013q-2.773.807-5.592,1.491l-.257.063q-4.144.995-8.371,1.692l-.649.1q-3.09.484-6.222.789c-11.738,1.121-23.618.211-35.284-1.363-23.559-3.18-46.806-9.141-68.013-18.484a188.77,188.77,0,0,1-23.4-12.284q-1.6-.988-3.168-2.016c-.168-.11-.331-.224-.5-.329-10.346-6.883-19.69-15.265-24.036-25.843-4.85-11.809-1.748-26.775,10.266-33.765,4.148-2.4,8.934-3.7,13.779-4.782l.5-.11c.82-.179,1.639-.352,2.457-.524,2.857-.6,5.732-1.2,8.578-1.871h0a84.517,84.517,0,0,0,15.332-4.89q.536-.238,1.068-.491a40.379,40.379,0,0,0,11.035-7.535c2.689-2.705,4.621-5.807,4.944-9.135h0a10.037,10.037,0,0,0-.126-2.833c-.336-1.77-.655-3.5-.9-5.191a26.288,26.288,0,0,1,.02-9.135h0a17.169,17.169,0,0,1,4.75-8.637q.615-.632,1.32-1.26a27.878,27.878,0,0,1,7.321-4.613q.5-.224,1-.42c7.432-2.994,16.366-3.62,24.713-3.207a135.5,135.5,0,0,1,23.159,3.207c.6.134,1.207.276,1.8.42a161.224,161.224,0,0,1,19.084,5.87C229.885,55.916,247.034,65.8,262.9,76.523l.756.513q.556.379,1.112.762,1.139.78,2.269,1.569.84.581,1.671,1.17h0l1.2.845.745.534c4.054,2.914,8.042,5.933,11.738,9.171l.406.359a70.916,70.916,0,0,1,11.847,13.124C308.485,125.015,304.38,153.345,285.118,170.191Z" transform="translate(-59.31 -39.43)" fill="#7478fa"/>
      <path id="Path_3453" data-name="Path 3453" d="M372.941,54.25V183.994c-.133.108-.271.225-.4.322a81.863,81.863,0,0,1-8.9,6H202.805A188.479,188.479,0,0,1,179.392,178q-1.6-.991-3.168-2.023c-.168-.11-.331-.225-.495-.33V54.263Z" transform="translate(-149.498 -50.903)" opacity="0.03"/>
      <path id="Path_3454" data-name="Path 3454" d="M374.25,56.12V185.762a81.849,81.849,0,0,1-8.9,6.006H204.51A188.474,188.474,0,0,1,181.1,179.444q-1.6-.991-3.168-2.023V56.12Z" transform="translate(-151.201 -52.352)" fill="#fefefe"/>
      <g id="Group_7739" data-name="Group 7739" transform="translate(171.173 52.454)" opacity="0.7">
        <path id="Path_3455" data-name="Path 3455" d="M824.153,273.35a4.72,4.72,0,1,0,4.737,4.72,4.72,4.72,0,0,0-4.737-4.72Zm0,8.541a3.828,3.828,0,0,1-3.835-3.821,3.727,3.727,0,0,1,.214-1.254h0a3.833,3.833,0,1,1,3.613,5.069Z" transform="translate(-819.45 -273.35)" fill="#ff6584"/>
        <path id="Path_3456" data-name="Path 3456" d="M834.563,289.116l.6-.6a.262.262,0,0,0,0-.373l-1.076-1.075L835.159,286a.262.262,0,0,0,0-.373l-.6-.6a.267.267,0,0,0-.376,0l-1.076,1.072-1.076-1.072a.265.265,0,0,0-.375,0l-.6.607a.262.262,0,0,0,0,.373l1.076,1.072-1.076,1.075a.262.262,0,0,0,0,.373l.6.6a.265.265,0,0,0,.375,0l1.076-1.075,1.076,1.075A.271.271,0,0,0,834.563,289.116Z" transform="translate(-828.407 -282.345)" fill="#ff6584"/>
      </g>
      <path id="Path_3457" data-name="Path 3457" d="M766.214,429.1h0a4.72,4.72,0,0,0-2.012-3.036h0a4.769,4.769,0,0,0-3.613-.7l-.142.034a4.447,4.447,0,0,0-.747.243,4.729,4.729,0,0,0,.011,8.708l.135.054a4.735,4.735,0,0,0,6.456-4.41,4.567,4.567,0,0,0-.088-.888Zm-.875,1.454a.026.026,0,0,1,0,.013v.043a3.836,3.836,0,0,1-5.391,2.831,1.457,1.457,0,0,1-.133-.066,3.7,3.7,0,0,1-.7-.465,3.814,3.814,0,0,1,.513-6.208,3.649,3.649,0,0,1,.756-.342l.142-.043a3.832,3.832,0,0,1,4.868,3.668A3.653,3.653,0,0,1,765.338,430.556Z" transform="translate(-599.779 -338.755)" fill="#7478fa" opacity="0.1"/>
      <path id="Path_3458" data-name="Path 3458" d="M771.927,441.024l.6-.6a.262.262,0,0,0,0-.373l-1.076-1.072,1.076-1.072a.265.265,0,0,0,0-.376l-.6-.593a.265.265,0,0,0-.375,0l-1.076,1.076-1.083-1.076a.265.265,0,0,0-.375,0l-.6.593a.265.265,0,0,0,0,.376l1.078,1.072-1.078,1.072a.262.262,0,0,0,0,.373l.6.6a.265.265,0,0,0,.375,0l1.078-1.072,1.076,1.072a.265.265,0,0,0,.379,0Z" transform="translate(-608.697 -347.748)" fill="#7478fa" opacity="0.1"/>
      <path id="Path_3459" data-name="Path 3459" d="M710.866,123.606l-.431-.432a.226.226,0,0,0-.325,0l-2.707,2.673-1.144-1.149a.226.226,0,0,0-.323,0l-.435.429a.224.224,0,0,0,0,.323l1.737,1.744a.226.226,0,0,0,.325,0l3.3-3.264a.224.224,0,0,0,0-.326Zm0,0-.431-.432a.226.226,0,0,0-.325,0l-2.707,2.673-1.144-1.149a.226.226,0,0,0-.323,0l-.435.429a.224.224,0,0,0,0,.323l1.737,1.744a.226.226,0,0,0,.325,0l3.3-3.264a.224.224,0,0,0,0-.326Zm0,0-.431-.432a.226.226,0,0,0-.325,0l-2.707,2.673-1.144-1.149a.226.226,0,0,0-.323,0l-.435.429a.224.224,0,0,0,0,.323l1.737,1.744a.226.226,0,0,0,.325,0l3.3-3.264a.224.224,0,0,0,0-.326Zm0,0-.431-.432a.226.226,0,0,0-.325,0l-2.707,2.673-1.144-1.149a.226.226,0,0,0-.323,0l-.435.429a.224.224,0,0,0,0,.323l1.737,1.744a.226.226,0,0,0,.325,0l3.3-3.264a.224.224,0,0,0,0-.326Zm-2.682-3.4a4.72,4.72,0,1,0,4.737,4.72,4.72,4.72,0,0,0-4.737-4.72Zm0,8.541a1.579,1.579,0,1,0,1.58-1.581,1.579,1.579,0,0,0-1.58,1.581Zm2.682-5.14-.431-.432a.226.226,0,0,0-.325,0l-2.707,2.673-1.144-1.149a.226.226,0,0,0-.323,0l-.435.429a.224.224,0,0,0,0,.323l1.737,1.744a.226.226,0,0,0,.325,0l3.3-3.264a.224.224,0,0,0,0-.33Zm0,0-.431-.432a.226.226,0,0,0-.325,0l-2.707,2.673-1.144-1.149a.226.226,0,0,0-.323,0l-.435.429a.224.224,0,0,0,0,.323l1.737,1.744a.226.226,0,0,0,.325,0l3.3-3.264a.224.224,0,0,0,0-.33Zm0,0-.431-.432a.226.226,0,0,0-.325,0l-2.707,2.673-1.144-1.149a.226.226,0,0,0-.323,0l-.435.429a.224.224,0,0,0,0,.323l1.737,1.744a.226.226,0,0,0,.325,0l3.3-3.264a.224.224,0,0,0,0-.33Zm0,0-.431-.432a.226.226,0,0,0-.325,0l-2.707,2.673-1.144-1.149a.226.226,0,0,0-.323,0l-.435.429a.224.224,0,0,0,0,.323l1.737,1.744a.226.226,0,0,0,.325,0l3.3-3.264a.224.224,0,0,0,0-.33Zm0,0-.431-.432a.226.226,0,0,0-.325,0l-2.707,2.673-1.144-1.149a.226.226,0,0,0-.323,0l-.435.429a.224.224,0,0,0,0,.323l1.737,1.744a.226.226,0,0,0,.325,0l3.3-3.264a.224.224,0,0,0,0-.33Z" transform="translate(-558.423 -102.036)" fill="#7478fa" opacity="0.7"/>
      <path id="Path_3460" data-name="Path 3460" d="M748.076,276.754l-.431-.434a.226.226,0,0,0-.325,0l-2.707,2.673-1.142-1.153a.226.226,0,0,0-.325,0l-.435.429a.224.224,0,0,0,0,.323l1.735,1.744a.226.226,0,0,0,.325,0l3.3-3.264a.224.224,0,0,0,0-.323Zm0,0-.431-.434a.226.226,0,0,0-.325,0l-2.707,2.673-1.142-1.153a.226.226,0,0,0-.325,0l-.435.429a.224.224,0,0,0,0,.323l1.735,1.744a.226.226,0,0,0,.325,0l3.3-3.264a.224.224,0,0,0,0-.323Zm0,0-.431-.434a.226.226,0,0,0-.325,0l-2.707,2.673-1.142-1.153a.226.226,0,0,0-.325,0l-.435.429a.224.224,0,0,0,0,.323l1.735,1.744a.226.226,0,0,0,.325,0l3.3-3.264a.224.224,0,0,0,0-.323Zm0,0-.431-.434a.226.226,0,0,0-.325,0l-2.707,2.673-1.142-1.153a.226.226,0,0,0-.325,0l-.435.429a.224.224,0,0,0,0,.323l1.735,1.744a.226.226,0,0,0,.325,0l3.3-3.264a.224.224,0,0,0,0-.323Zm-2.682-3.4a4.72,4.72,0,1,0,4.737,4.72,4.72,4.72,0,0,0-4.737-4.72Zm0,8.541a3.82,3.82,0,1,1,2.714-1.117,3.82,3.82,0,0,1-2.714,1.117Zm2.682-5.14-.431-.434a.226.226,0,0,0-.325,0L744.613,279l-1.142-1.149a.226.226,0,0,0-.325,0l-.435.429a.224.224,0,0,0,0,.323l1.735,1.744a.226.226,0,0,0,.325,0l3.3-3.264a.225.225,0,0,0,0-.326Zm0,0-.431-.434a.226.226,0,0,0-.325,0L744.613,279l-1.142-1.149a.226.226,0,0,0-.325,0l-.435.429a.224.224,0,0,0,0,.323l1.735,1.744a.226.226,0,0,0,.325,0l3.3-3.264a.225.225,0,0,0,0-.326Zm0,0-.431-.434a.226.226,0,0,0-.325,0L744.613,279l-1.142-1.149a.226.226,0,0,0-.325,0l-.435.429a.224.224,0,0,0,0,.323l1.735,1.744a.226.226,0,0,0,.325,0l3.3-3.264a.225.225,0,0,0,0-.326Zm0,0-.431-.434a.226.226,0,0,0-.325,0L744.613,279l-1.142-1.149a.226.226,0,0,0-.325,0l-.435.429a.224.224,0,0,0,0,.323l1.735,1.744a.226.226,0,0,0,.325,0l3.3-3.264a.225.225,0,0,0,0-.326Zm0,0-.431-.434a.226.226,0,0,0-.325,0L744.613,279l-1.142-1.149a.226.226,0,0,0-.325,0l-.435.429a.224.224,0,0,0,0,.323l1.735,1.744a.226.226,0,0,0,.325,0l3.3-3.264a.225.225,0,0,0,0-.326Z" transform="translate(-587.252 -220.896)" fill="#7478fa" opacity="0.1"/>
      <path id="Path_3461" data-name="Path 3461" d="M685.206,429.889l-.431-.434a.226.226,0,0,0-.325,0l-2.707,2.673-1.143-1.149a.226.226,0,0,0-.325,0l-.435.429a.224.224,0,0,0,0,.323l1.735,1.744a.226.226,0,0,0,.325,0l3.3-3.264a.224.224,0,0,0,0-.323Zm0,0-.431-.434a.226.226,0,0,0-.325,0l-2.707,2.673-1.143-1.149a.226.226,0,0,0-.325,0l-.435.429a.224.224,0,0,0,0,.323l1.735,1.744a.226.226,0,0,0,.325,0l3.3-3.264a.224.224,0,0,0,0-.323Zm0,0-.431-.434a.226.226,0,0,0-.325,0l-2.707,2.673-1.143-1.149a.226.226,0,0,0-.325,0l-.435.429a.224.224,0,0,0,0,.323l1.735,1.744a.226.226,0,0,0,.325,0l3.3-3.264a.224.224,0,0,0,0-.323Zm0,0-.431-.434a.226.226,0,0,0-.325,0l-2.707,2.673-1.143-1.149a.226.226,0,0,0-.325,0l-.435.429a.224.224,0,0,0,0,.323l1.735,1.744a.226.226,0,0,0,.325,0l3.3-3.264a.224.224,0,0,0,0-.323Zm-2.682-3.4a4.72,4.72,0,1,0,4.737,4.72A4.72,4.72,0,0,0,682.524,426.49Zm0,8.541a3.819,3.819,0,1,1,2.715-1.117,3.819,3.819,0,0,1-2.715,1.117Zm2.682-5.14-.431-.434a.226.226,0,0,0-.325,0l-2.707,2.673-1.143-1.149a.226.226,0,0,0-.325,0l-.435.429a.224.224,0,0,0,0,.323l1.735,1.744a.226.226,0,0,0,.325,0l3.3-3.264a.224.224,0,0,0,0-.326Zm0,0-.431-.434a.226.226,0,0,0-.325,0l-2.707,2.673-1.143-1.149a.226.226,0,0,0-.325,0l-.435.429a.224.224,0,0,0,0,.323l1.735,1.744a.226.226,0,0,0,.325,0l3.3-3.264a.224.224,0,0,0,0-.326Zm0,0-.431-.434a.226.226,0,0,0-.325,0l-2.707,2.673-1.143-1.149a.226.226,0,0,0-.325,0l-.435.429a.224.224,0,0,0,0,.323l1.735,1.744a.226.226,0,0,0,.325,0l3.3-3.264a.224.224,0,0,0,0-.326Zm0,0-.431-.434a.226.226,0,0,0-.325,0l-2.707,2.673-1.143-1.149a.226.226,0,0,0-.325,0l-.435.429a.224.224,0,0,0,0,.323l1.735,1.744a.226.226,0,0,0,.325,0l3.3-3.264a.224.224,0,0,0,0-.326Zm0,0-.431-.434a.226.226,0,0,0-.325,0l-2.707,2.673-1.143-1.149a.226.226,0,0,0-.325,0l-.435.429a.224.224,0,0,0,0,.323l1.735,1.744a.226.226,0,0,0,.325,0l3.3-3.264a.224.224,0,0,0,0-.326Z" transform="translate(-538.541 -339.706)" fill="#7478fa" opacity="0.7"/>
      <path id="Path_3462" data-name="Path 3462" d="M644.886,583.036l-.431-.432a.226.226,0,0,0-.325,0l-2.707,2.673-1.143-1.149a.226.226,0,0,0-.325,0l-.434.432a.224.224,0,0,0,0,.322l1.737,1.744a.226.226,0,0,0,.325,0l3.3-3.264a.224.224,0,0,0,0-.326Zm0,0-.431-.432a.226.226,0,0,0-.325,0l-2.707,2.673-1.143-1.149a.226.226,0,0,0-.325,0l-.434.432a.224.224,0,0,0,0,.322l1.737,1.744a.226.226,0,0,0,.325,0l3.3-3.264a.224.224,0,0,0,0-.326Zm0,0-.431-.432a.226.226,0,0,0-.325,0l-2.707,2.673-1.143-1.149a.226.226,0,0,0-.325,0l-.434.432a.224.224,0,0,0,0,.322l1.737,1.744a.226.226,0,0,0,.325,0l3.3-3.264a.224.224,0,0,0,0-.326Zm0,0-.431-.432a.226.226,0,0,0-.325,0l-2.707,2.673-1.143-1.149a.226.226,0,0,0-.325,0l-.434.432a.224.224,0,0,0,0,.322l1.737,1.744a.226.226,0,0,0,.325,0l3.3-3.264a.224.224,0,0,0,0-.326Zm-2.681-3.4a4.72,4.72,0,1,0,4.737,4.72,4.72,4.72,0,0,0-4.737-4.72Zm0,8.541a3.821,3.821,0,1,1,3.835-3.821,3.821,3.821,0,0,1-3.835,3.821Zm2.682-5.143-.431-.432a.226.226,0,0,0-.325,0l-2.707,2.673-1.144-1.149a.226.226,0,0,0-.325,0l-.434.432a.224.224,0,0,0,0,.322l1.737,1.744a.226.226,0,0,0,.325,0l3.3-3.264a.224.224,0,0,0,0-.328Zm0,0-.431-.432a.226.226,0,0,0-.325,0l-2.707,2.673-1.144-1.149a.226.226,0,0,0-.325,0l-.434.432a.224.224,0,0,0,0,.322l1.737,1.744a.226.226,0,0,0,.325,0l3.3-3.264a.224.224,0,0,0,0-.328Zm0,0-.431-.432a.226.226,0,0,0-.325,0l-2.707,2.673-1.144-1.149a.226.226,0,0,0-.325,0l-.434.432a.224.224,0,0,0,0,.322l1.737,1.744a.226.226,0,0,0,.325,0l3.3-3.264a.224.224,0,0,0,0-.328Zm0,0-.431-.432a.226.226,0,0,0-.325,0l-2.707,2.673-1.144-1.149a.226.226,0,0,0-.325,0l-.434.432a.224.224,0,0,0,0,.322l1.737,1.744a.226.226,0,0,0,.325,0l3.3-3.264a.224.224,0,0,0,0-.328Zm0,0-.431-.432a.226.226,0,0,0-.325,0l-2.707,2.673-1.144-1.149a.226.226,0,0,0-.325,0l-.434.432a.224.224,0,0,0,0,.322l1.737,1.744a.226.226,0,0,0,.325,0l3.3-3.264a.224.224,0,0,0,0-.328Z" transform="translate(-507.301 -458.524)" fill="#7478fa" opacity="0.1"/>
      <path id="Path_3463" data-name="Path 3463" d="M887.553,200.176l-.431-.425a.226.226,0,0,0-.325,0l-1.407,1.394-.5.5h0l-.043.04h0l-.264.263h0l-.471.465-1.143-1.149a.226.226,0,0,0-.325,0l-.435.429a.224.224,0,0,0,0,.323l1.638,1.648.1.1a.244.244,0,0,0,.133.067.226.226,0,0,0,.192-.066l1.367-1.348.451-.45,1.48-1.464a.224.224,0,0,0,0-.329Zm0,0-.431-.425a.226.226,0,0,0-.325,0l-1.407,1.394-.5.5h0l-.043.04h0l-.264.263h0l-.471.465-1.143-1.149a.226.226,0,0,0-.325,0l-.435.429a.224.224,0,0,0,0,.323l1.638,1.648.1.1a.244.244,0,0,0,.133.067.226.226,0,0,0,.192-.066l1.367-1.348.451-.45,1.48-1.464a.224.224,0,0,0,0-.329Zm0,0-.431-.425a.226.226,0,0,0-.325,0l-1.407,1.394-.5.5h0l-.043.04h0l-.264.263h0l-.471.465-1.143-1.149a.226.226,0,0,0-.325,0l-.435.429a.224.224,0,0,0,0,.323l1.638,1.648.1.1a.244.244,0,0,0,.133.067.226.226,0,0,0,.192-.066l1.367-1.348.451-.45,1.48-1.464a.224.224,0,0,0,0-.329Zm0,0-.431-.425a.226.226,0,0,0-.325,0l-1.407,1.394-.5.5h0l-.043.04h0l-.264.263h0l-.471.465-1.143-1.149a.226.226,0,0,0-.325,0l-.435.429a.224.224,0,0,0,0,.323l1.638,1.648.1.1a.244.244,0,0,0,.133.067.226.226,0,0,0,.192-.066l1.367-1.348.451-.45,1.48-1.464a.224.224,0,0,0,0-.329Zm-2.682-3.4a4.719,4.719,0,0,0-1.559,9.191c.05.018.1.036.151.05a4.754,4.754,0,0,0,3.158-.117,4.4,4.4,0,0,0,.676-.336,4.718,4.718,0,0,0-2.427-8.788Zm1.68,8.15a3.753,3.753,0,0,1-.492.2,3.873,3.873,0,0,1-2.217.047c-.1-.029-.2-.061-.3-.1a3.831,3.831,0,1,1,3.01-.15Zm1-4.756-.431-.425a.226.226,0,0,0-.325,0l-1.407,1.394-.5.5h0l-.043.04h0l-.264.263h0l-.471.465-1.143-1.149a.226.226,0,0,0-.325,0l-.435.429a.224.224,0,0,0,0,.323l1.638,1.648.1.1a.244.244,0,0,0,.133.067.226.226,0,0,0,.192-.066l1.367-1.348.451-.449,1.48-1.464a.224.224,0,0,0,0-.329Zm0,0-.431-.425a.226.226,0,0,0-.325,0l-1.407,1.394-.5.5h0l-.043.04h0l-.264.263h0l-.471.465-1.143-1.149a.226.226,0,0,0-.325,0l-.435.429a.224.224,0,0,0,0,.323l1.638,1.648.1.1a.244.244,0,0,0,.133.067.226.226,0,0,0,.192-.066l1.367-1.348.451-.449,1.48-1.464a.224.224,0,0,0,0-.329Zm0,0-.431-.425a.226.226,0,0,0-.325,0l-1.407,1.394-.5.5h0l-.043.04h0l-.264.263h0l-.471.465-1.143-1.149a.226.226,0,0,0-.325,0l-.435.429a.224.224,0,0,0,0,.323l1.638,1.648.1.1a.244.244,0,0,0,.133.067.226.226,0,0,0,.192-.066l1.367-1.348.451-.449,1.48-1.464a.224.224,0,0,0,0-.329Zm0,0-.431-.425a.226.226,0,0,0-.325,0l-1.407,1.394-.5.5h0l-.043.04h0l-.264.263h0l-.471.465-1.143-1.149a.226.226,0,0,0-.325,0l-.435.429a.224.224,0,0,0,0,.323l1.638,1.648.1.1a.244.244,0,0,0,.133.067.226.226,0,0,0,.192-.066l1.367-1.348.451-.449,1.48-1.464a.224.224,0,0,0,0-.329Zm0,0-.431-.425a.226.226,0,0,0-.325,0l-1.407,1.394-.5.5h0l-.043.04h0l-.264.263h0l-.471.465-1.143-1.149a.226.226,0,0,0-.325,0l-.435.429a.224.224,0,0,0,0,.323l1.638,1.648.1.1a.244.244,0,0,0,.133.067.226.226,0,0,0,.192-.066l1.367-1.348.451-.449,1.48-1.464a.224.224,0,0,0,0-.329Z" transform="translate(-695.288 -161.49)" fill="#7478fa" opacity="0.7"/>
      <rect id="Rectangle_147" data-name="Rectangle 147" width="99.054" height="9.162" rx="4.581" transform="translate(37.667 18.32)" fill="#7478fa" opacity="0.2"/>
      <rect id="Rectangle_148" data-name="Rectangle 148" width="139.12" height="9.162" rx="4.581" transform="translate(37.627 35.435)" fill="#7478fa" opacity="0.2"/>
      <rect id="Rectangle_149" data-name="Rectangle 149" width="107.495" height="9.162" rx="4.581" transform="translate(37.661 52.6)" fill="#7478fa" opacity="0.1"/>
      <rect id="Rectangle_150" data-name="Rectangle 150" width="139.12" height="9.162" rx="4.581" transform="translate(37.627 69.765)" fill="#7478fa" opacity="0.1"/>
      <rect id="Rectangle_151" data-name="Rectangle 151" width="93.703" height="9.162" rx="4.581" transform="translate(37.672 86.93)" fill="#7478fa" opacity="0.2"/>
      <rect id="Rectangle_152" data-name="Rectangle 152" width="139.12" height="9.162" rx="4.581" transform="translate(37.627 104.097)" fill="#7478fa" opacity="0.1"/>
      <rect id="Rectangle_153" data-name="Rectangle 153" width="84.166" height="9.162" rx="4.581" transform="translate(37.677 121.262)" fill="#7478fa" opacity="0.1"/>
      <path id="Path_3464" data-name="Path 3464" d="M787.433,120.21a4.72,4.72,0,1,0,4.737,4.72A4.72,4.72,0,0,0,787.433,120.21Zm0,8.541a1.586,1.586,0,1,0,1.587-1.588,1.586,1.586,0,0,0-1.587,1.588Z" transform="translate(-619.826 -102.036)" fill="#7478fa" opacity="0.1"/>
      <path id="Path_3465" data-name="Path 3465" d="M797.84,135.974l.6-.593a.265.265,0,0,0,0-.376l-1.078-1.072,1.076-1.072a.265.265,0,0,0,0-.376l-.6-.593a.265.265,0,0,0-.375,0l-1.076,1.072-1.076-1.072a.267.267,0,0,0-.376,0l-.6.593a.262.262,0,0,0,0,.376l1.076,1.072L794.341,135a.262.262,0,0,0,0,.376l.6.593a.267.267,0,0,0,.376,0l1.076-1.072,1.076,1.072a.265.265,0,0,0,.375,0Z" transform="translate(-628.777 -111.033)" fill="#7478fa" opacity="0.1"/>
      <path id="Path_3466" data-name="Path 3466" d="M963.745,196.78a4.715,4.715,0,1,0,3.354,1.379A4.715,4.715,0,0,0,963.745,196.78Zm0,8.541a3.82,3.82,0,1,1,3.277-1.848A3.82,3.82,0,0,1,963.745,205.321Z" transform="translate(-756.488 -161.491)" fill="#7478fa" opacity="0.1"/>
      <path id="Path_3467" data-name="Path 3467" d="M974.148,212.544l.6-.593a.265.265,0,0,0,0-.376l-1.078-1.072,1.078-1.072a.262.262,0,0,0,0-.373l-.6-.6a.265.265,0,0,0-.375,0l-1.074,1.072-1.076-1.072a.265.265,0,0,0-.375,0l-.6.6a.262.262,0,0,0,0,.373l1.076,1.072-1.076,1.072a.265.265,0,0,0,0,.376l.6.593a.261.261,0,0,0,.375,0l1.076-1.072,1.078,1.072A.265.265,0,0,0,974.148,212.544Z" transform="translate(-765.442 -170.491)" fill="#7478fa" opacity="0.1"/>
      <g id="Group_7740" data-name="Group 7740" transform="translate(147.803 121.116)" opacity="0.7">
        <path id="Path_3468" data-name="Path 3468" d="M720.373,579.64a4.72,4.72,0,1,0,4.737,4.72,4.72,4.72,0,0,0-4.737-4.72Zm0,8.541a3.82,3.82,0,1,1,2.715-1.118,3.82,3.82,0,0,1-2.715,1.118Z" transform="translate(-715.67 -579.64)" fill="#ff6584"/>
        <path id="Path_3469" data-name="Path 3469" d="M730.783,595.4l.6-.593a.265.265,0,0,0,0-.376l-1.076-1.072,1.076-1.072a.262.262,0,0,0,0-.373l-.6-.6a.267.267,0,0,0-.376,0l-1.076,1.072-1.076-1.072a.265.265,0,0,0-.375,0l-.6.6a.262.262,0,0,0,0,.373l1.076,1.072-1.076,1.072a.265.265,0,0,0,0,.376l.6.593a.26.26,0,0,0,.375,0l1.076-1.072,1.076,1.072a.267.267,0,0,0,.376,0Z" transform="translate(-724.626 -588.635)" fill="#ff6584"/>
      </g>
      <ellipse id="Ellipse_122" data-name="Ellipse 122" cx="26.817" cy="1.304" rx="26.817" ry="1.304" transform="translate(145.761 180.146)" fill="#7478fa" opacity="0.1"/>
      <path id="Path_3470" data-name="Path 3470" d="M801.138,266.008s-6.341-11.549-5.27-13.428a25.274,25.274,0,0,0,1.854-4.6s2.342-1.6,2.342-2.247,1.854-2.16,2.831-2.816.487-3.756,0-4.131a8.564,8.564,0,0,1-1.26-1.69s.677-1.877,0-2.441.1-1.124,0-1.69a22.566,22.566,0,0,1,0-2.627,4.251,4.251,0,0,0-2.495-1.8l-.072-.3-.42-1.751s2.03-3.878-1.26-5.907a5.517,5.517,0,0,0-.729-.382q0-.126-.018-.252a15.7,15.7,0,0,0-.478-2.969c-.168-.544-.395-.91-.676-.828a.452.452,0,0,0-.185.106,2.059,2.059,0,0,0-.35.412h0a.087.087,0,0,1-.016.024h0a7.034,7.034,0,0,0-.776,2.147,12.364,12.364,0,0,0-.226,1.349h0a7.377,7.377,0,0,0-.376.834c-.4,1.032-.866,2.819-.016,4.14.722,1.124,1.694,2.668,2.4,3.792l.023.036.043.07-.075.047.011.173.066.946.557,8.175a3.5,3.5,0,0,0-.5-.106,4.563,4.563,0,0,0-.728-.047c-.476-1.864-1.782-3.6-2.016-5.545a5.163,5.163,0,0,1-.039-.588c.02-1.225.327-2.454.3-3.678a6.641,6.641,0,0,0-.023-.672h0a.659.659,0,0,0-.018-.186,5.529,5.529,0,0,0-3.016-4.188c-.566-.281-1.176-.467-1.73-.776-1.272-.71-2.087-1.991-3.241-2.87a3.6,3.6,0,0,0-3.1-.672,14.358,14.358,0,0,0-1.512.31h0a13.639,13.639,0,0,0-3.454,1.428,4.473,4.473,0,0,0-.434.281,1.9,1.9,0,0,0-.7.812,2.121,2.121,0,0,0-.108.875c0,.213,0,.432.013.645-.063,3.6-3.949,6.38-4.272,9.89,0,.084-.013.168-.018.252v.384h0v.281c.056,1.54.86,2.973,1.008,4.507.013.137.02.272.023.409a6.776,6.776,0,0,1-.4,2.064,6.07,6.07,0,0,0-1.4.566c-1.182.756-3.316,2.066-4.094,4.567a6.669,6.669,0,0,0-.3,2,41.717,41.717,0,0,1-.659,7.159,13.317,13.317,0,0,1-.415,1.76.413.413,0,0,0-.013.173l-.469,6.069-.084,1.068-.118,1.52s.034.092.084.247a7.148,7.148,0,0,1,.185.7,3.758,3.758,0,0,1,.06,1.574,1.082,1.082,0,0,1-.329.578.243.243,0,0,0-.039.043,4.653,4.653,0,0,0-.356,1.547c-.04.315-.079.672-.118,1.048-.226,2.394-.365,5.977-.451,8.94-.084,2.922-.111,5.23-.111,5.23a6,6,0,0,0,1.212.6c-.032.079-.065.16-.1.245a11.772,11.772,0,0,0-.735,3.089,5.383,5.383,0,0,0,3.524,5.928,5,5,0,0,0,.607.207,1.933,1.933,0,0,0,1.543-.094c0,.133.016.26.023.389.032.549.059,1.049.072,1.47.1,2.63.751,7.226.751,7.226a9.536,9.536,0,0,1,.029,2.441,13.212,13.212,0,0,0,0,2.816s.676,1.124,0,1.69-.877,3.372-.676,3.756a.125.125,0,0,1,0,.043c.149.933-.692,14.792-.692,14.792s-.8,2.122-1.428,4.324c-.618,2.144-1.083,4.369-.51,4.781a4.8,4.8,0,0,0,1.785.481c0,.092-.013.184-.023.279a7.983,7.983,0,0,1-.395,2.329,26.357,26.357,0,0,0-.676,4.945l-.013.177a16.533,16.533,0,0,0-.727,2.1s-2.159,5.395-1.428,6.795a1.149,1.149,0,0,0,.268.33h0a.621.621,0,0,0,.07.063c1.04.829,3.646,1,4.591,1.041l-.036,1.335v.05h1.229V359.6c0-.168.027-.942.068-1.976,0-.184.013-.377.023-.576,0-.155.016-.313.023-.475a8.288,8.288,0,0,0,.534-3,13.121,13.121,0,0,1,.474-3.479,9.645,9.645,0,0,1,.625-1.7,7.721,7.721,0,0,0-.151-3.455,2.5,2.5,0,0,0-.451-.778v-.45a12.925,12.925,0,0,1,.289-2.882.319.319,0,0,1,0-.045c.018-.079.039-.153.059-.225l.013-.05.4.013c1.225.034,2.125.034,2.125.034a45.521,45.521,0,0,0,.88-7.134v-.292a27.7,27.7,0,0,1,.588-5.06l.781-7.6a3.988,3.988,0,0,1,0-2.247c.241-.58.74-1.657,1.087-2.4.162-.344.291-.613.345-.731l.032-.063a1.46,1.46,0,0,1-.347-.173h0c-.318-.211-.6-.625.35-1.234,1.464-.939.977-3.286.977-3.286a1.681,1.681,0,0,1,.076-1.6c.5-.751,0-3.567,0-3.567a11.774,11.774,0,0,0,.988-2.358c.363-1.124,1.281-6.62,1.715-9.27.142-.87.225-1.428.225-1.428l.013.137.013.149h0l.122,1.252.016.168.226,2.367a72.6,72.6,0,0,1,.168,8.661v.045a2.871,2.871,0,0,1-.168.739c-.519,1.169-.42,5.812-.4,6.84v.207a4.127,4.127,0,0,0-.276,1.587h0a1.016,1.016,0,0,0,.178.472,1.192,1.192,0,0,1,.174.73v.023a2.621,2.621,0,0,1-.027.323,6.148,6.148,0,0,1-.343,1.272,4.642,4.642,0,0,0-.325,2.088h0a.66.66,0,0,0,.129.252.6.6,0,0,1,.075.27.1.1,0,0,0,0,.024c.182,1.512-.289,8.191-.569,11.847-.113,1.443-.194,2.414-.194,2.414l-.756,7.989.076.054c.084.063.252.168.474.3v.018l-.034.24c-.111.769-.26,1.664-.42,2.347-.013.051-.024.1-.039.149a2.162,2.162,0,0,0-.828.33c-1.643,2.906-.916,5.209,0,5.881a2.356,2.356,0,0,1,.553,1.374l.226,2.9v.336a.857.857,0,0,0,.043.266l.07.879.095,1.222H783v-1.479h.04c1.182.04,3.089.09,3.919.024h.023a1.462,1.462,0,0,0,.225-.024.568.568,0,0,0,.131-.036c.439-.211,1.536-3.309.548-4.012s-1.207-2.7-1.207-2.7c-.084-.26-.168-.5-.26-.744v-.153a12.315,12.315,0,0,1,.118-2.576,19.542,19.542,0,0,0,.257-3.077v-.286a3.858,3.858,0,0,0,.5-.168l.036-.016a3.547,3.547,0,0,0,.84-.5l2.734-12.2.291-1.418,1.649-8.047s-.588-2.816,0-3.284c.225-.168.273-.9.26-1.742-.023-1.475-.26-3.329-.26-3.329s.781-1.221,1.176-1.971a6.057,6.057,0,0,0,0-2.722l.778-4.5a42.335,42.335,0,0,1,3.025-9.879c1.579-3.315.573-12.267-.451-17.034-.027-.124-.054-.245-.084-.362v-.018c.483-.239,1.074-.526,1.706-.828l.239-.113c.8-.376,1.649-.762,2.409-1.084l.05-.02a16.878,16.878,0,0,1,1.676-.625,2.825,2.825,0,0,1,.514-.106C805.237,273.147,801.138,266.008,801.138,266.008Zm-30.523,15.285h.406c-.047.084-.092.177-.138.267-.027.054-.054.106-.079.16-.149.308-.286.623-.4.931.045-.336.1-.695.168-1.081.012-.1.026-.193.041-.276Zm-1.092,5.844a.17.17,0,0,0,0-.031l-.034-.106c-.025-.072-.047-.144-.07-.213q.21-.066.426-.142l.029-.011v.074a2.441,2.441,0,0,1-.039.315h0a.223.223,0,0,1,0,.04,2.181,2.181,0,0,1-.029.247c-.02.162-.04.319-.059.47-.043-.142-.084-.281-.131-.42a.776.776,0,0,1-.1-.223Z" transform="translate(-605.364 -176.875)" fill="url(#linear-gradient)"/>
      <path id="Path_3471" data-name="Path 3471" d="M897.448,231.567l-2.437.861-.884-1.461c-.676-1.124-1.615-2.662-2.308-3.781-1.223-1.967.376-4.957.376-4.957s.28-2.994,1.313-3.929,1.315,3.93,1.315,3.93c4.13,1.873,1.917,6.269,1.917,6.269l.4,1.747Z" transform="translate(-704.012 -178.096)" fill="#a1616a"/>
      <path id="Path_3472" data-name="Path 3472" d="M906.95,272.9l-2.437.861-.884-1.461v-.124a4.255,4.255,0,0,1,3.025-.6Z" transform="translate(-713.515 -219.451)" opacity="0.1"/>
      <path id="Path_3473" data-name="Path 3473" d="M900.89,283.735l1.221-1.021-.612-9.266a3.872,3.872,0,0,1,5.495,1.218,23.576,23.576,0,0,0,0,2.621c.095.562-.656,1.124,0,1.68s0,2.432,0,2.432a8.511,8.511,0,0,0,1.212,1.686c.47.376.941,3.462,0,4.117s-2.723,2.151-2.723,2.808-2.256,2.247-2.256,2.247l-1.974-2.621Z" transform="translate(-711.399 -220.457)" fill="#5a5773"/>
      <path id="Path_3474" data-name="Path 3474" d="M772.141,530.613c-4.552-1.924-3.541-6.624-2.689-8.99a12.445,12.445,0,0,1,.6-1.4l2.558-1.54s.521,1.324,1.078,3.1C774.983,525.9,776.47,532.443,772.141,530.613Z" transform="translate(-608.991 -411.234)" fill="#a1616a"/>
      <path id="Path_3475" data-name="Path 3475" d="M791.209,758.368a7.563,7.563,0,0,0-.676,1.89,13.646,13.646,0,0,0-.282,3.223c.018.749.084,1.238.084,1.238l-5.071,3.475s.029-.407.079-1.008A27.963,27.963,0,0,1,786,762.26a8.207,8.207,0,0,0,.381-2.32c.079-.986.111-1.857.111-1.857S792.583,755.8,791.209,758.368Z" transform="translate(-621.807 -596.277)" fill="#a1616a"/>
      <path id="Path_3476" data-name="Path 3476" d="M847.654,772.076s0,.966-.036,2.09a21.36,21.36,0,0,1-.246,3.068,12.587,12.587,0,0,0-.115,2.567c.034,1.124.115,2.136.115,2.136s-5.188-4.877-4.65-5.265a2.383,2.383,0,0,0,.411-1.072c.158-.672.3-1.574.406-2.34.126-.9.205-1.641.205-1.641Z" transform="translate(-666.298 -607.496)" fill="#a1616a"/>
      <path id="Path_3477" data-name="Path 3477" d="M795.058,758.368a7.558,7.558,0,0,0-.676,1.89,40.941,40.941,0,0,1-4.15-.315c.076-.966.111-1.857.111-1.857S796.432,755.8,795.058,758.368Z" transform="translate(-625.656 -596.277)" opacity="0.1"/>
      <path id="Path_3478" data-name="Path 3478" d="M850.594,772.1s0,.966-.036,2.09a5.66,5.66,0,0,1-4.078-.9c.126-.9.205-1.641.205-1.641Z" transform="translate(-669.237 -607.52)" opacity="0.1"/>
      <path id="Path_3479" data-name="Path 3479" d="M810.949,491.725a43.538,43.538,0,0,0-2.912,9.825l-.749,4.5a6.343,6.343,0,0,1,0,2.713c-.375.749-1.128,1.964-1.128,1.964s.564,4.588,0,5.053,0,3.277,0,3.277l-1.88,9.452-2.63,12.165c-2.536,2.059-5.91-.562-5.91-.562l.744-7.952s1.128-13.936.659-14.507.187-2.337.187-2.337.659-1.685.19-2.342.092-2.059.092-2.059-.187-5.707.376-7.017,0-9.419,0-9.419l-.225-2.521-.129-1.4-.013-.137s-.084.562-.225,1.428c-.415,2.641-1.3,8.115-1.649,9.242a12,12,0,0,1-.975,2.329s.487,2.808,0,3.556a1.736,1.736,0,0,0-.075,1.591s.47,2.337-.941,3.277,0,1.4,0,1.4-1.033,2.248-1.407,3.183a4.145,4.145,0,0,0,0,2.248l-.735,7.578a27.32,27.32,0,0,0-.564,5.334,46.494,46.494,0,0,1-.857,7.123s-7.232,0-8.346-.84,1.872-9.088,1.872-9.088.846-14.413.656-14.787,0-3.181.659-3.742,0-1.68,0-1.68a13.745,13.745,0,0,1,0-2.807,9.927,9.927,0,0,0-.029-2.437s-.629-4.586-.722-7.206-.564-8.517-.564-8.517.492-3.646.566-5.377a6.28,6.28,0,0,1,.665-2.185,19.609,19.609,0,0,1,1.4-2.448s22.258-6.553,23.2-5.9a8.366,8.366,0,0,1,.965,3.052C811.5,479.486,812.469,488.408,810.949,491.725Z" transform="translate(-618.999 -374.945)" fill="#605d82"/>
      <ellipse id="Ellipse_123" data-name="Ellipse 123" cx="6.481" cy="6.458" rx="6.481" ry="6.458" transform="translate(171.761 46.995)" fill="#a1616a"/>
      <path id="Path_3480" data-name="Path 3480" d="M821.993,474.734c-.747.38-1.248.645-1.248.645s-10.519,4.957-13.52,4.68c-2.315-.225-8.222-.1-10.8-.034a19.628,19.628,0,0,1,1.4-2.447s22.258-6.553,23.2-5.9A8.45,8.45,0,0,1,821.993,474.734Z" transform="translate(-630.486 -374.73)" opacity="0.1"/>
      <path id="Path_3481" data-name="Path 3481" d="M787.354,317.9s-6.012.938-7.42,1.872-4.228,2.709-4.228,6.553a37.014,37.014,0,0,1-1.033,8.89c-.376,1.124,5.926,10.194,5.926,10.194l-2.256,13.757s9.024-.279,12.028,0,13.52-4.677,13.52-4.677,6.2-3.277,7.514-3.372-2.631-7.206-2.631-7.206-6.1-11.511-5.071-13.383a25.531,25.531,0,0,0,1.785-4.586L804.36,316.4a3.706,3.706,0,0,0-3.1.467c-1.41,1.028-6.2.47-6.2.47Z" transform="translate(-613.632 -254.213)" fill="#5a5773"/>
      <path id="Path_3482" data-name="Path 3482" d="M771.9,381.717l-2.348.656-.659,8.8s.846,2.337,0,3.089-1.033,16.75-1.033,16.75a6.153,6.153,0,0,0,5.917.467s-.469-1.778.941-8.234a51.285,51.285,0,0,0,1.407-9.733s0-8.047.659-9.357,0-4.586,0-4.586-1.315-1.778-1.223-2.437S771.9,381.717,771.9,381.717Z" transform="translate(-608.328 -301.405)" opacity="0.1"/>
      <path id="Path_3483" data-name="Path 3483" d="M776.225,521.782a6,6,0,0,1-4.235-.156,12.451,12.451,0,0,1,.6-1.4l2.558-1.544S775.667,520,776.225,521.782Z" transform="translate(-611.522 -411.22)" opacity="0.1"/>
      <path id="Path_3484" data-name="Path 3484" d="M771.278,381.717l-2.348.656-.656,8.8s.846,2.337,0,3.089-1.033,16.75-1.033,16.75a6.151,6.151,0,0,0,5.917.467s-.47-1.778.939-8.234a51.7,51.7,0,0,0,1.41-9.733s0-8.047.656-9.357,0-4.586,0-4.586-1.315-1.778-1.22-2.437S771.278,381.717,771.278,381.717Z" transform="translate(-607.848 -301.405)" fill="#5a5773"/>
      <path id="Path_3485" data-name="Path 3485" d="M875.282,404s-1.221,10.481-4.789,12.446C870.49,416.442,878.474,414.2,875.282,404Z" transform="translate(-687.843 -322.261)" opacity="0.1"/>
      <path id="Path_3486" data-name="Path 3486" d="M812.21,408.14s4.413,2.153,3.383,3.651S812.21,408.14,812.21,408.14Z" transform="translate(-642.684 -325.463)" opacity="0.1"/>
      <path id="Path_3487" data-name="Path 3487" d="M812.21,427.3s2.817,2.9,2.256,3.929S812.21,427.3,812.21,427.3Z" transform="translate(-642.683 -340.328)" opacity="0.1"/>
      <path id="Path_3488" data-name="Path 3488" d="M913,320.29a9.953,9.953,0,0,1,1.212,3.089C914.317,324.594,913,320.29,913,320.29Z" transform="translate(-720.772 -257.307)" opacity="0.1"/>
      <path id="Path_3489" data-name="Path 3489" d="M913,308.333s.555-.467,1.972,0S913,308.333,913,308.333Z" transform="translate(-720.774 -247.868)" opacity="0.1"/>
      <path id="Path_3490" data-name="Path 3490" d="M860.832,545.51a13.107,13.107,0,0,1-6.869-.876l-1.185,3.019-.129-1.4c.192-1.171.569-2.427,1.313-2.745a11.4,11.4,0,0,0,6.869,2Z" transform="translate(-674.022 -430.484)" opacity="0.1"/>
      <path id="Path_3491" data-name="Path 3491" d="M803.51,569.89s5.777,1.194,7.394.985Z" transform="translate(-635.948 -450.945)" opacity="0.1"/>
      <path id="Path_3492" data-name="Path 3492" d="M806.17,576.576a11.975,11.975,0,0,1,3.7.386Z" transform="translate(-638.005 -456.123)" opacity="0.1"/>
      <path id="Path_3493" data-name="Path 3493" d="M807.42,581.14a22.517,22.517,0,0,0,3.415.45Z" transform="translate(-638.972 -459.672)" opacity="0.1"/>
      <path id="Path_3494" data-name="Path 3494" d="M806.79,636.1c.106-.072,4.931-1.194,5.531-.386Z" transform="translate(-638.487 -501.788)" opacity="0.1"/>
      <path id="Path_3495" data-name="Path 3495" d="M806.79,644.249s4.192-.49,4.3,0S806.79,644.249,806.79,644.249Z" transform="translate(-638.485 -508.463)" opacity="0.1"/>
      <path id="Path_3496" data-name="Path 3496" d="M806.79,648.4s4.473-.912,5-.7S806.79,648.4,806.79,648.4Z" transform="translate(-638.487 -511.28)" opacity="0.1"/>
      <path id="Path_3497" data-name="Path 3497" d="M790.321,784.344l-5.071,3.475s.029-.407.079-1.008a13.61,13.61,0,0,1,2.6-4.226,2.087,2.087,0,0,1,2.315.517C790.258,783.854,790.321,784.344,790.321,784.344Z" transform="translate(-621.797 -615.905)" opacity="0.1"/>
      <path id="Path_3498" data-name="Path 3498" d="M783.421,787.961a12.49,12.49,0,0,0-1.058,5.159,8,8,0,0,1-1.074,4.161,3.937,3.937,0,0,1-.356.5s-3.524-.027-4.757-1.048a1.23,1.23,0,0,1-.327-.391c-.706-1.4,1.374-6.773,1.374-6.773a14.882,14.882,0,0,1,3.31-6.353C784.477,782.205,783.421,787.961,783.421,787.961Z" transform="translate(-614.403 -616.398)" fill="#5a5773"/>
      <path id="Path_3499" data-name="Path 3499" d="M782.914,819.684a3.946,3.946,0,0,1-.356.5s-3.524-.027-4.757-1.048c.607-2,2.545-8.052,3.449-7.024C782.1,813.085,782.7,817.738,782.914,819.684Z" transform="translate(-616.025 -638.801)" opacity="0.1"/>
      <path id="Path_3500" data-name="Path 3500" d="M797.466,812.495l-.246,9.066H798.4s.192-7.952.72-9.066S797.466,812.495,797.466,812.495Z" transform="translate(-631.068 -638.8)" fill="#5a5773"/>
      <path id="Path_3501" data-name="Path 3501" d="M847.374,795.555s-5.188-4.877-4.65-5.265a2.385,2.385,0,0,0,.411-1.072c.995-.176,2.707.24,4.124,4.2C847.293,794.539,847.374,795.555,847.374,795.555Z" transform="translate(-666.298 -621.113)" opacity="0.1"/>
      <path id="Path_3502" data-name="Path 3502" d="M843.609,801.481a.7.7,0,0,1-.124.034,36.4,36.4,0,0,1-4.11,0,.9.9,0,0,1-.859-.883c0-.336,0-.749-.027-1.187-.059-1.385-.226-3.032-.724-3.4-.882-.672-1.579-2.965,0-5.862,0,0,3.025-2.3,5.209,4.621,0,0,.212,1.978,1.164,2.679S844.029,801.266,843.609,801.481Z" transform="translate(-661.757 -621.596)" fill="#5a5773"/>
      <path id="Path_3503" data-name="Path 3503" d="M849.2,821.632a36.353,36.353,0,0,1-4.11,0,.9.9,0,0,1-.859-.883c0-.336,0-.749-.027-1.187.381-1.68.929-3.4,1.636-3.8C845.836,815.766,847.972,815.525,849.2,821.632Z" transform="translate(-667.471 -641.718)" opacity="0.1"/>
      <path id="Path_3504" data-name="Path 3504" d="M783.38,773.213l.566,7.546h.722V772.57Z" transform="translate(-606.987 -599.37)" fill="#5a5773"/>
      <path id="Path_3505" data-name="Path 3505" d="M806.384,232a12.986,12.986,0,0,0-5.78,1.848,2.393,2.393,0,0,0-1.092,1.088,3.6,3.6,0,0,0-.084,1.348c.06,3.873-4.27,6.806-4.135,10.67.054,1.535.828,2.965.97,4.5.237,2.551-1.279,4.9-2.731,7.017a5.856,5.856,0,0,0,4.117-1.36,31,31,0,0,1,.582,15.685h2.079a1.618,1.618,0,0,1,.607.077,1.49,1.49,0,0,1,.48.357c1.943,1.927,3.244,4.774,2.5,7.4l4.421-1.652a13.07,13.07,0,0,0,3.052-1.452,4.4,4.4,0,0,0,1.885-2.7c.119-.672.084-1.479.639-1.87a3.388,3.388,0,0,1,.87-.323c1.213-.425,1.75-1.823,2-3.082a17.692,17.692,0,0,0,.282-4.691c-.2-2.63-.977-5.3-.336-7.868.363-1.441,1.17-2.785,1.236-4.271.106-2.454-1.818-4.566-2.1-7-.2-1.7.415-3.419.214-5.118a5.5,5.5,0,0,0-2.9-4.174c-.544-.279-1.128-.467-1.665-.773-1.225-.708-2.008-1.985-3.12-2.862s-2.964-1.207-3.8-.066Z" transform="translate(-628.237 -188.846)" opacity="0.1"/>
      <path id="Path_3506" data-name="Path 3506" d="M806.384,230.72a12.985,12.985,0,0,0-5.78,1.861,2.387,2.387,0,0,0-1.092,1.092,3.6,3.6,0,0,0-.084,1.349c.06,3.871-4.27,6.8-4.135,10.67.054,1.535.828,2.965.97,4.5.237,2.553-1.279,4.9-2.731,7.017a5.856,5.856,0,0,0,4.117-1.36,31,31,0,0,1,.582,15.685h2.08a1.619,1.619,0,0,1,.607.076,1.49,1.49,0,0,1,.481.357c1.943,1.927,3.244,4.774,2.5,7.4l4.421-1.652a13.07,13.07,0,0,0,3.052-1.452,4.4,4.4,0,0,0,1.885-2.7c.119-.672.084-1.479.639-1.87a3.312,3.312,0,0,1,.87-.322c1.213-.427,1.75-1.825,2-3.084a17.691,17.691,0,0,0,.282-4.691c-.2-2.63-.977-5.3-.336-7.868.363-1.441,1.17-2.785,1.236-4.271.106-2.454-1.818-4.566-2.1-7-.2-1.7.415-3.419.214-5.118a5.5,5.5,0,0,0-2.9-4.174c-.544-.279-1.128-.465-1.665-.773-1.225-.708-2.008-1.985-3.12-2.862s-2.964-1.207-3.8-.066Z" transform="translate(-628.237 -187.856)" fill="#4a4347"/>
      <g id="Group_7741" data-name="Group 7741" transform="translate(165.293 46.208)" opacity="0.1">
        <path id="Path_3507" data-name="Path 3507" d="M819.6,245.63a2.557,2.557,0,0,0-.013.263C819.6,245.806,819.6,245.713,819.6,245.63Z" transform="translate(-813.711 -245.63)"/>
        <path id="Path_3508" data-name="Path 3508" d="M892.3,273.344a23.839,23.839,0,0,0,.252-3.574,23.232,23.232,0,0,0-.252,3.574Z" transform="translate(-870 -264.344)"/>
        <path id="Path_3509" data-name="Path 3509" d="M802.3,297.891c-.131-1.394-.783-2.7-.936-4.091a5.1,5.1,0,0,0-.034.769c.054,1.52.81,2.936.963,4.448a6.054,6.054,0,0,0,.007-1.126Z" transform="translate(-799.57 -282.972)"/>
        <path id="Path_3510" data-name="Path 3510" d="M895.444,323.231a9.6,9.6,0,0,0-.225,2.792,8.62,8.62,0,0,1,.225-1.621c.363-1.441,1.17-2.785,1.236-4.271a4.593,4.593,0,0,0-.036-.791A33.855,33.855,0,0,1,895.444,323.231Z" transform="translate(-872.263 -302.771)"/>
        <path id="Path_3511" data-name="Path 3511" d="M797.647,337.19a5.849,5.849,0,0,1-3.33,1.349c-.257.4-.523.793-.787,1.176a5.856,5.856,0,0,0,4.117-1.36,30.918,30.918,0,0,1,1.313,8.4A30.972,30.972,0,0,0,797.647,337.19Z" transform="translate(-793.53 -316.609)"/>
        <path id="Path_3512" data-name="Path 3512" d="M852.348,382.826c-.252,1.26-.785,2.657-2,3.084a3.483,3.483,0,0,0-.87.322c-.557.393-.518,1.2-.636,1.87a4.4,4.4,0,0,1-1.888,2.709,13.113,13.113,0,0,1-3.052,1.452l-4.219,1.574a5.67,5.67,0,0,1-.2,1.249l4.421-1.652a13.068,13.068,0,0,0,3.052-1.452,4.412,4.412,0,0,0,1.888-2.7c.118-.672.079-1.479.636-1.87a3.314,3.314,0,0,1,.87-.322c1.214-.427,1.75-1.825,2-3.084a17.571,17.571,0,0,0,.318-3.978,17.484,17.484,0,0,1-.318,2.8Z" transform="translate(-829.114 -349.82)"/>
        <path id="Path_3513" data-name="Path 3513" d="M817.556,407.352a1.493,1.493,0,0,0-.481-.357,1.62,1.62,0,0,0-.607-.077h-1.843c-.072.393-.149.785-.225,1.176h2.078a1.618,1.618,0,0,1,.607.076,1.49,1.49,0,0,1,.481.357,8.875,8.875,0,0,1,2.682,5.265A8.318,8.318,0,0,0,817.556,407.352Z" transform="translate(-809.692 -370.661)"/>
      </g>
      <path id="Path_3514" data-name="Path 3514" d="M782.7,441.835s1.68-.7,2.053,0S782.7,441.835,782.7,441.835Z" transform="translate(-619.819 -351.357)" opacity="0.1"/>
      <path id="Path_3515" data-name="Path 3515" d="M785.28,447.182s1.68-.7,2.055,0S785.28,447.182,785.28,447.182Z" transform="translate(-621.817 -355.505)" opacity="0.1"/>
      <path id="Path_3516" data-name="Path 3516" d="M1050.451,786.91s1.241,1.617-.57,4.046-3.3,4.5-2.707,6.017c0,0,2.734-4.529,4.963-4.593S1052.9,789.628,1050.451,786.91Z" transform="translate(-824.657 -619.349)" fill="#7478fa"/>
      <path id="Path_3517" data-name="Path 3517" d="M1050.695,786.91a1.985,1.985,0,0,1,.252.5c2.17,2.54,3.327,4.912,1.241,4.97-1.943.056-4.272,3.518-4.832,4.393a2.02,2.02,0,0,0,.066.2s2.734-4.529,4.963-4.593S1053.14,789.628,1050.695,786.91Z" transform="translate(-824.906 -619.349)" opacity="0.1"/>
      <path id="Path_3518" data-name="Path 3518" d="M1071.4,794.8c0,.569-.063,1.029-.142,1.029s-.142-.449-.142-1.029.079-.3.158-.3S1071.4,794.231,1071.4,794.8Z" transform="translate(-843.299 -625.18)" fill="#ffd037"/>
      <path id="Path_3519" data-name="Path 3519" d="M1072.524,797.744c-.5.272-.938.436-.975.366s.336-.346.84-.618.305-.072.34,0S1073.028,797.472,1072.524,797.744Z" transform="translate(-843.64 -627.445)" fill="#ffd037"/>
      <path id="Path_3520" data-name="Path 3520" d="M1023.591,786.91s-1.238,1.617.573,4.046,3.3,4.5,2.707,6.017c0,0-2.731-4.529-4.963-4.593S1021.146,789.628,1023.591,786.91Z" transform="translate(-804.342 -619.349)" fill="#7478fa"/>
      <path id="Path_3521" data-name="Path 3521" d="M1023.57,786.91a2.078,2.078,0,0,0-.252.5c-2.17,2.54-3.325,4.912-1.241,4.97,1.944.056,4.285,3.518,4.834,4.393a1.649,1.649,0,0,1-.068.2s-2.732-4.53-4.963-4.593S1021.125,789.628,1023.57,786.91Z" transform="translate(-804.325 -619.349)" opacity="0.1"/>
      <path id="Path_3522" data-name="Path 3522" d="M1022.93,794.8c0,.569.065,1.029.144,1.029s.142-.449.142-1.029-.079-.3-.158-.3S1022.93,794.231,1022.93,794.8Z" transform="translate(-805.988 -625.18)" fill="#ffd037"/>
      <path id="Path_3523" data-name="Path 3523" d="M1018.382,797.744c.5.272.936.436.975.366s-.336-.346-.84-.618-.3-.072-.34,0S1017.878,797.472,1018.382,797.744Z" transform="translate(-802.229 -627.445)" fill="#ffd037"/>
      <path id="Path_3524" data-name="Path 3524" d="M1024.68,824.326s3.465-.108,4.512-.848,5.33-1.625,5.588-.449,5.209,5.909,1.3,5.941-9.091-.607-10.134-1.238S1024.68,824.326,1024.68,824.326Z" transform="translate(-807.343 -646.907)" fill="#a8a8a8"/>
      <path id="Path_3525" data-name="Path 3525" d="M1036.139,834.992c-3.912.031-9.091-.607-10.134-1.238-.792-.483-1.11-2.211-1.216-3.007h-.115s.226,2.783,1.26,3.416,6.222,1.27,10.134,1.238c1.128,0,1.518-.409,1.5-1C1037.417,834.767,1036.98,834.992,1036.139,834.992Z" transform="translate(-807.342 -653.335)" opacity="0.2"/>
      <rect id="Rectangle_154" data-name="Rectangle 154" width="196.304" height="5.887" transform="translate(26.733 3.768)" fill="#7478fa" opacity="0.1"/>
      <ellipse id="Ellipse_124" data-name="Ellipse 124" cx="1.252" cy="1.248" rx="1.252" ry="1.248" transform="translate(29.429 5.464)" fill="#fefefe"/>
      <ellipse id="Ellipse_125" data-name="Ellipse 125" cx="1.252" cy="1.248" rx="1.252" ry="1.248" transform="translate(33.264 5.464)" fill="#fefefe"/>
      <ellipse id="Ellipse_126" data-name="Ellipse 126" cx="1.252" cy="1.248" rx="1.252" ry="1.248" transform="translate(37.099 5.464)" fill="#fefefe"/>
      <path id="Path_3526" data-name="Path 3526" d="M489.239,818.2s-9.538-.573-8.415,6.085a1.62,1.62,0,0,0,.849,1.713s.018-.495.979-.326a4.494,4.494,0,0,0,1.035.05,2.175,2.175,0,0,0,1.268-.522h0s2.68-1.1,3.722-5.469c0,0,.771-.953.74-1.2l-1.608.672a2.856,2.856,0,0,1,.118,2.117s-.052-2.077-.361-2.023c-.063.011-.84.4-.84.4s.948,2.023.226,3.482c0,0,.271-2.484-.528-3.336l-1.128.659a4.974,4.974,0,0,1,.356,3.781s.192-2.6-.6-3.619l-1.027.8s1.04,2.053.406,3.459c0,0-.084-3.032-.627-3.262a5.891,5.891,0,0,0-1.035,1.124s.711,1.488.271,2.274c0,0-.271-2.023-.494-2.023a6.554,6.554,0,0,0-.988,2.247,4.843,4.843,0,0,1,.771-2.383,2.676,2.676,0,0,0-1.37.706s.138-.946,1.591-1.029a6.323,6.323,0,0,1,.936-1.076,5.913,5.913,0,0,0-2.319.267,2.6,2.6,0,0,1,2.585-.488l1.013-.825a8.421,8.421,0,0,0-2.707.027s.924-.789,2.98-.213l1.1-.659a10.183,10.183,0,0,0-2.585-.225,3.983,3.983,0,0,1,2.91.047l.787-.353s-1.186-.225-1.534-.27-.365-.133-.365-.133a4.124,4.124,0,0,1,2.229.247,10.011,10.011,0,0,0,1.651-.724Z" transform="translate(-385.86 -643.594)" fill="#7478fa"/>
      <ellipse id="Ellipse_127" data-name="Ellipse 127" cx="6.749" cy="1.138" rx="6.749" ry="1.138" transform="translate(90.063 181.843)" fill="#7478fa" opacity="0.1"/>
      <path id="Path_3527" data-name="Path 3527" d="M427.925,819.8s-5.377-.323-4.737,3.431a.914.914,0,0,0,.478.965s0-.276.55-.182a2.517,2.517,0,0,0,.588.027,1.207,1.207,0,0,0,.715-.294h0a4.246,4.246,0,0,0,2.1-3.082s.435-.537.42-.672l-.9.387a1.613,1.613,0,0,1,.068,1.194s-.029-1.169-.205-1.142c-.034,0-.471.225-.471.225a2.659,2.659,0,0,1,.131,1.963s.154-1.4-.3-1.879l-.639.37a2.794,2.794,0,0,1,.2,2.131,3.986,3.986,0,0,0-.336-2.039l-.58.45a2.723,2.723,0,0,1,.225,1.951s-.045-1.711-.352-1.841a3.474,3.474,0,0,0-.588.629s.4.84.151,1.281c0,0-.151-1.138-.277-1.144a3.818,3.818,0,0,0-.557,1.272,2.745,2.745,0,0,1,.435-1.349,1.518,1.518,0,0,0-.771.4s.076-.533.9-.58a3.515,3.515,0,0,1,.53-.607,3.336,3.336,0,0,0-1.308.15,1.47,1.47,0,0,1,1.457-.274l.57-.466a4.733,4.733,0,0,0-1.527.016,1.848,1.848,0,0,1,1.68-.121l.623-.371a5.7,5.7,0,0,0-1.457-.126,2.243,2.243,0,0,1,1.64.027l.451-.2s-.676-.13-.866-.15-.205-.074-.205-.074a2.325,2.325,0,0,1,1.26.139,5.527,5.527,0,0,0,.9-.413Z" transform="translate(-341.231 -644.838)" fill="#7478fa"/>
      <ellipse id="Ellipse_128" data-name="Ellipse 128" cx="3.805" cy="0.64" rx="3.805" ry="0.64" transform="translate(79.186 179.041)" fill="#7478fa" opacity="0.1"/>
      <path id="Path_3528" data-name="Path 3528" d="M469.869,784.38s-6.492-.392-5.725,4.143a1.1,1.1,0,0,0,.576,1.164s0-.336.665-.224a2.977,2.977,0,0,0,.706.034,1.46,1.46,0,0,0,.862-.355h0s1.825-.751,2.536-3.722c0,0,.526-.648.5-.816l-1.092.468a1.945,1.945,0,0,1,.079,1.441s-.036-1.412-.246-1.381c-.043,0-.569.274-.569.274a3.222,3.222,0,0,1,.158,2.369s.185-1.69-.359-2.268l-.771.449a3.389,3.389,0,0,1,.241,2.573,4.852,4.852,0,0,0-.4-2.473l-.7.544a3.3,3.3,0,0,1,.276,2.353s-.056-2.066-.426-2.221a4.24,4.24,0,0,0-.7.756s.483,1.014.182,1.548c0,0-.185-1.375-.336-1.382a4.7,4.7,0,0,0-.676,1.535,3.311,3.311,0,0,1,.526-1.623,1.83,1.83,0,0,0-.932.483s.095-.645,1.083-.7a4.151,4.151,0,0,1,.639-.733,4.012,4.012,0,0,0-1.579.18,1.774,1.774,0,0,1,1.758-.33l.691-.562a5.761,5.761,0,0,0-1.843.018,2.248,2.248,0,0,1,2.03-.144l.751-.449a7.439,7.439,0,0,0-1.764-.15,2.706,2.706,0,0,1,1.98.031l.537-.24s-.807-.157-1.044-.182-.252-.09-.252-.09a2.8,2.8,0,0,1,1.518.168,6.951,6.951,0,0,0,1.126-.484Z" transform="translate(-372.956 -617.382)" fill="#7478fa"/>
      <ellipse id="Ellipse_129" data-name="Ellipse 129" cx="4.595" cy="0.773" rx="4.595" ry="0.773" transform="translate(87.85 171.926)" fill="#7478fa" opacity="0.1"/>
      <ellipse id="Ellipse_130" data-name="Ellipse 130" cx="6.749" cy="1.138" rx="6.749" ry="1.138" transform="translate(132.972 171.881)" fill="#7478fa" opacity="0.1"/>
      <path id="Path_3529" data-name="Path 3529" d="M659.76,780.549s3.851-.117,5.013-.939,5.922-1.8,6.211-.488,5.786,6.568,1.439,6.6-10.1-.672-11.259-1.378S659.76,780.549,659.76,780.549Z" transform="translate(-524.577 -612.815)" fill="#a8a8a8"/>
      <path id="Path_3530" data-name="Path 3530" d="M672.491,792.38c-4.347.036-10.1-.672-11.259-1.378-.882-.535-1.232-2.454-1.354-3.342h-.129s.246,3.1,1.4,3.8,6.912,1.412,11.259,1.378c1.254-.011,1.687-.449,1.664-1.124C673.907,792.124,673.425,792.374,672.491,792.38Z" transform="translate(-524.57 -619.931)" opacity="0.2"/>
    </g>
  </g>
</svg>
