<svg xmlns="http://www.w3.org/2000/svg" xmlns:xlink="http://www.w3.org/1999/xlink" width="290" height="274" viewBox="0 0 290 274">
  <defs>
    <clipPath id="clip-path">
      <rect id="Rectangle_4" data-name="Rectangle 4" width="290" height="274"/>
    </clipPath>
  </defs>
  <g id="_2" data-name="2" clip-path="url(#clip-path)">
    <rect id="Rectangle_3" data-name="Rectangle 3" width="290" height="274" fill="#fff"/>
    <g id="undraw_transfer_money_rywa_1_" data-name="undraw_transfer_money_rywa (1)" transform="translate(12 40.416)">
      <circle id="Ellipse_97" data-name="Ellipse 97" cx="90.609" cy="90.609" r="90.609" transform="translate(23.492 -0.385)" fill="#7478fa"/>
      <ellipse id="Ellipse_98" data-name="Ellipse 98" cx="35.88" cy="5.741" rx="35.88" ry="5.741" transform="translate(0 181.812)" fill="#f2f2f2"/>
      <ellipse id="Ellipse_99" data-name="Ellipse 99" cx="55.517" cy="8.883" rx="55.517" ry="8.883" transform="translate(155.4 169.692)" fill="#f2f2f2"/>
      <path id="Path_3382" data-name="Path 3382" d="M855.343,435.945s.473,1.576-2.207,2.993-3.466,6.775-.315,8.35,4.1,3.623,2.521,5.042-4.413,5.2-.63,6.144,4.254,2.836,3.151,3.624,2.521-1.418,2.521-1.418.63,3.781,3.939,2.836,12.6-18.906,7.877-21.427S855.343,435.945,855.343,435.945Z" transform="translate(-656.761 -342.751)" fill="#2f2e41"/>
      <path id="Path_3383" data-name="Path 3383" d="M874.024,491.624s1.635,5.72-1.226,6.129a11.164,11.164,0,0,0-4.9,2.043l5.311,6.946h9.806l6.125-6.128s-8.172-6.129-6.537-9.805S874.024,491.624,874.024,491.624Z" transform="translate(-669.731 -383.217)" fill="#ffb9b9"/>
      <path id="Path_3384" data-name="Path 3384" d="M874.024,491.624s1.635,5.72-1.226,6.129a11.164,11.164,0,0,0-4.9,2.043l5.311,6.946h9.806l6.125-6.128s-8.172-6.129-6.537-9.805S874.024,491.624,874.024,491.624Z" transform="translate(-669.731 -383.217)" opacity="0.1"/>
      <path id="Path_3385" data-name="Path 3385" d="M852.787,721.934l9.4,3.268,6.537.408-.408-5.72L854.83,715.9Z" transform="translate(-646.043 -542.435)" fill="#ffb9b9"/>
      <path id="Path_3386" data-name="Path 3386" d="M953,769.924s0,5.72.817,5.72,11.848-1.226,15.118,0,8.171-3.268,5.72-5.72-6.45-6.129-8.945-5.311S953,767.471,953,767.471Z" transform="translate(-734.206 -591.649)" fill="#575a89"/>
      <path id="Path_3387" data-name="Path 3387" d="M820.516,764.974s-4.9,9.806-1.635,10.623a11.34,11.34,0,0,0,7.355-.817c.409-.409,6.129-2.043,6.946-1.226s.817-3.268.817-3.268Z" transform="translate(-631.749 -592.012)" fill="#575a89"/>
      <path id="Path_3388" data-name="Path 3388" d="M833.036,709.359s-7.763,10.623-2.043,13.483,33.1,2.86,35.137,0,2.86-11.849,0-12.666S833.036,709.359,833.036,709.359Z" transform="translate(-640.18 -549.88)" fill="#2f2e41"/>
      <path id="Path_3389" data-name="Path 3389" d="M833.036,709.359s-7.763,10.623-2.043,13.483,33.1,2.86,35.137,0,2.86-11.849,0-12.666S833.036,709.359,833.036,709.359Z" transform="translate(-640.18 -549.88)" opacity="0.2"/>
      <circle id="Ellipse_100" data-name="Ellipse 100" cx="9.397" cy="9.397" r="9.397" transform="translate(198.164 92.473)" fill="#ffb9b9"/>
      <path id="Path_3390" data-name="Path 3390" d="M845.987,527.3l8.172-1.635s2.043,6.537,8.58,5.311,8.172-5.311,8.172-5.311,4.9,2.043,5.311,2.043,5.72,2.043,5.72,3.268-6.129,13.483-6.129,13.483l.817,22.065L846.4,565.7l2.043-21.654Z" transform="translate(-653.135 -410.717)" fill="#717171"/>
      <path id="Path_3391" data-name="Path 3391" d="M823.139,576.22s-2.451,21.654-.817,23.289,8.171,6.129,8.171,6.129v-4.9l-3.268-6.129,3.268-14.3Z" transform="translate(-634.781 -449.018)" fill="#ffb9b9"/>
      <path id="Path_3392" data-name="Path 3392" d="M975.708,573.692s-1.43,22.267-1.43,23.085-3.677,3.677-4.9,3.677-2.043-2.043-2.043-2.043l2.86-3.269-2.044-16.755Z" transform="translate(-745.061 -447.103)" fill="#ffb9b9"/>
      <path id="Path_3393" data-name="Path 3393" d="M926.5,688.432s18.388-10.214,18.794,0-9.4,14.3-9.4,14.3-25.331,7.6-26.353,4.819-3.064-7.271-1.43-7.68,3.677-1.226,4.494-.408,11.033-6.129,11.033-6.129Z" transform="translate(-699.736 -530.588)" fill="#2f2e41"/>
      <path id="Path_3394" data-name="Path 3394" d="M985.512,697.562s-3.677,1.635-4.9,2.86-6.537,3.268-6.537,3.268" transform="translate(-750.167 -540.943)" fill="none" stroke="#000" stroke-miterlimit="10" stroke-width="2" opacity="0.2"/>
      <path id="Path_3395" data-name="Path 3395" d="M827.532,533.219l-2.451-.817s-8.99,9.4-6.13,11.849,4.494,3.268,5.311,4.086,4.9,1.226,4.9,1.226Z" transform="translate(-632.228 -415.824)" fill="#717171"/>
      <path id="Path_3396" data-name="Path 3396" d="M961.252,544.2l3.677.817s2.86,6.129,3.678,6.946-1.226.408-2.451,2.043-2.452,4.494-4.9,4.494-5.72-4.086-5.72-4.086Z" transform="translate(-736.121 -424.761)" fill="#717171"/>
      <path id="Path_3397" data-name="Path 3397" d="M782.171,699.429s-15.526-11.033-20.837-2.86,22.88,19.2,26.966,20.837,7.763,3.268,7.763,3.268,3.678-8.989,3.678-10.623-2.86-1.635-3.678-1.635-4.494-.817-5.311-2.043S782.171,699.429,782.171,699.429Z" transform="translate(-588.5 -537.907)" fill="#2f2e41"/>
      <path id="Path_3398" data-name="Path 3398" d="M813.966,705.988s4.086,3.269,7.762,4.086,4.9,2.86,4.9,2.86" transform="translate(-628.876 -547.326)" fill="none" stroke="#000" stroke-miterlimit="10" stroke-width="2" opacity="0.2"/>
      <path id="Path_3399" data-name="Path 3399" d="M837.731,635.728l.326,17.3a2.165,2.165,0,0,0,2.189,2.125l32.193-.361a2.166,2.166,0,0,0,2.138-2.041l.977-16.937a2.166,2.166,0,0,0-2.162-2.29H839.9a2.165,2.165,0,0,0-2.165,2.207Z" transform="translate(-646.879 -492.427)" fill="#575a89"/>
      <path id="Path_3400" data-name="Path 3400" d="M892.912,423.04s.523,1.747-2.444,3.316-3.84,7.5-.349,9.251,4.538,4.014,2.793,5.585-4.887,5.76-.7,6.8,4.713,3.142,3.494,4.014,2.793-1.571,2.793-1.571.7,4.189,4.363,3.142,7.322-20.083,3.236-24.986C902.3,424.038,892.912,423.04,892.912,423.04Z" transform="translate(-684.85 -332.975)" fill="#2f2e41"/>
      <path id="Path_3401" data-name="Path 3401" d="M904.13,411.9c0-2.557,7.651-.72,10.931,2.85,2.271,2.472,5.721,6.192,2.83,8.813s4.955,6.059,7.06,7.1,6.259,4.229,2.507,6.367-3.691,4.3-2.279,4.806-3.113-.759-3.113-.759.46,4.222-3.355,4.2-14.748-20.969-12.136-26.792C909.005,413.078,904.13,411.9,904.13,411.9Z" transform="translate(-697.182 -323.635)" fill="#2f2e41"/>
      <path id="Path_3402" data-name="Path 3402" d="M875.789,413.208c-10.23-.616-11.257,7.085-11.257,7.085.071,4.456,7.147,2.285,9.113,2.949,2.371-1.705,6.942-4.933,10.212-7.237a15.461,15.461,0,0,0-8.068-2.8Z" transform="translate(-667.183 -325.5)" fill="#2f2e41"/>
      <path id="Path_3403" data-name="Path 3403" d="M690.783,384.126s-9.176-43.007-66.614-74.205" transform="translate(-485.092 -247.278)" fill="none" stroke="#3f3d56" stroke-miterlimit="10" stroke-width="2"/>
      <path id="Path_3404" data-name="Path 3404" d="M574.59,254.891l.115.472-2.323.564.736,2.276-.46.148-.891-2.773Z" transform="translate(-433.146 -193.187)" fill="#3f3d56"/>
      <path id="Path_3405" data-name="Path 3405" d="M73.771,758.6c0,5.447-3.238,7.349-7.233,7.349h-.276c-.184,0-.368-.013-.552-.025-3.6-.256-6.406-2.255-6.406-7.321,0-5.24,6.7-11.86,7.2-12.347h0l.029-.029S73.771,753.149,73.771,758.6Z" transform="translate(-57.17 -577.804)" fill="#7478fa"/>
      <path id="Path_3406" data-name="Path 3406" d="M78.968,765.115l2.645-3.7-2.652,4.1-.007.425c-.184,0-.368-.013-.552-.025l.285-5.45v-.042l0-.008.027-.515-2.659-4.112,2.666,3.726.006.109.215-4.118-2.275-4.249,2.3,3.527.224-8.537h0l-.038,6.732,2.266-2.666-2.275,3.243-.06,3.687,2.115-3.538-2.123,4.08-.033,2.049,3.072-4.924-3.087,5.642Z" transform="translate(-69.864 -577.807)" fill="#3f3d56"/>
      <path id="Path_3407" data-name="Path 3407" d="M217.383,787.858l1.547-1.149s1.024,5.72-.119,6.578-5.424,2.286-5.424,4-9.713,4-10,1.429a5.667,5.667,0,0,1,.857-4s4.571-4.571,5.142-5.424,2-2.574,2-2.574Z" transform="translate(-166.284 -608.478)" fill="#2f2e41"/>
      <path id="Path_3408" data-name="Path 3408" d="M167,488.193s.043.251.117.712c.069.408.163.986.276,1.7,1.2,7.322,4.7,28.879,4.463,29.59-.286.857-2.286,4,0,4.857a1.772,1.772,0,0,1,.712.774,16.6,16.6,0,0,1,1.208,2.85,125.275,125.275,0,0,1,3.663,14.665c.368,1.926.62,3.474.694,4.285a2.33,2.33,0,0,1,.008.565c-.286,1.143,1.715,5.142,2.574,6.285s2.286,2.286,2,3.428,7.143,4.285,8,2.286a36.482,36.482,0,0,0,1.143-3.714c.286-.571.571-4.571-.857-5.142s-.572-10.573-2-12.571a27.447,27.447,0,0,1-1.968-5.631c-.3-1.063-.6-2.195-.9-3.328-1.205-4.648-2.275-9.325-2.275-9.325l.286-33.427-15.713-2-.4.888-.8,1.762Z" transform="translate(-138.754 -379.952)" fill="#2f2e41"/>
      <path id="Path_3409" data-name="Path 3409" d="M130.026,721.1s-2.286-2.286-3.428,0-2.286,11.142-4.285,13.142-4.571,12-1.715,12.571,6-.857,6.285-2.574,6.285-10.573,6.285-11.428-4-4-4-4Z" transform="translate(-102.64 -558.008)" fill="#2f2e41"/>
      <path id="Path_3410" data-name="Path 3410" d="M192.113,430.746s-3.714,33.427-4.571,36.57-5.424,15.142-6.857,17.142-10.573,18.285-11.714,19.142-3.428,3.143-3.428,3.143-4.285,4.285-4.857,5.142-5.424-1.715-5.714-3.428a17.616,17.616,0,0,1,.572-5.714c.286-1.143-.572-2.857.286-3.714s5.142-5.142,5.142-7.143,7.428-13.714,10.285-16.285,2.286-6.857,2.286-6.857V451.317l-15.713-4.857s.857-13.714,2.857-13.714S188.971,428.175,192.113,430.746Z" transform="translate(-129.587 -338.218)" fill="#2f2e41"/>
      <circle id="Ellipse_101" data-name="Ellipse 101" cx="9.428" cy="9.428" r="9.428" transform="translate(29.956 25.961)" fill="#9f616a"/>
      <path id="Path_3411" data-name="Path 3411" d="M186.638,212.945s1.143,4.285,2.574,5.424-3.714,6-3.714,6l-9.714.571-1.714-5.424s3.142-6.285,2.286-10.285S186.638,212.945,186.638,212.945Z" transform="translate(-144.11 -170.128)" fill="#9f616a"/>
      <path id="Path_3412" data-name="Path 3412" d="M185.281,248.18s-2.574.286-3.142,1.143-4.571,3.428-7.714,2.857-5.142-1.429-5.714-1.143S167,257.322,167,257.322l3.142,9.142-.571,25.142-.857,6.857s-1.714-2.286,5.142-.857,15.713-1.143,18.572-1.429,7.714-1.143,8-2.857-.857-8-.857-8L195,266.181,192.142,255.9Z" transform="translate(-138.754 -200.506)" fill="#7478fa"/>
      <path id="Path_3413" data-name="Path 3413" d="M231.271,240.946s2.417-1.282,3.274-.139,11.714,2.857,11.714,3.714,2.286,24,1.715,26,1.143,4.285,1.143,4.285l2,8.57s5.424,16.285,3.142,16.856a14.894,14.894,0,0,1-5.143,0c-.858,0-.572-10.856-2.857-13.714s-5.424-10-6-11.428-7.714-21.146-7.428-23.427S231.271,240.946,231.271,240.946Z" transform="translate(-187.446 -194.561)" fill="#d0cde1"/>
      <path id="Path_3414" data-name="Path 3414" d="M144.82,248.18s-2.286,0-2.574.572a31.258,31.258,0,0,1-4.285,5.142c-1.143.857-5.142,4.571-5.142,5.424s8.286,7.143,8.286,7.143,3.428,16.856,1.715,22.57-4.285,19.428-3.142,20.284,3.714,1.143,3.714,0,1.715-13.428,3.142-16,5.714-18.856,4-23.427S144.82,248.18,144.82,248.18Z" transform="translate(-112.864 -200.506)" fill="#d0cde1"/>
      <path id="Path_3415" data-name="Path 3415" d="M274.486,364.847s.286,8.856-2.857,13.428a54.3,54.3,0,0,0-5.142,9.714s-5.143-1.429-6-3.142-6.286-.286-6.286-.857,6.571-3.428,7.143-4,2.574-.572,3.714-1.715,1.429-3.714,1.429-3.714l1.143-7.428Z" transform="translate(-204.818 -288.889)" fill="#9f616a"/>
      <path id="Path_3416" data-name="Path 3416" d="M180.631,145.976a5.433,5.433,0,0,0,2.115-.485,2.831,2.831,0,0,0,.724-4.191,5.42,5.42,0,0,0-1-.807l-2.172-1.478a10.623,10.623,0,0,0-3.064-1.626,9.562,9.562,0,0,0-3.132-.184,21.164,21.164,0,0,0-6,1.091,10.041,10.041,0,0,0-4.862,3.557c-1.839,2.661-1.864,6.252-.851,9.32a31.646,31.646,0,0,0,4.832,8.366l.984-4.8a1.772,1.772,0,0,1,.556-1.149c.883-.629,1.965.662,3.049.654a1.826,1.826,0,0,0,1.545-1.224,6.972,6.972,0,0,0,.343-2.053c.13-1.471.644-3.516,2.036-4.327C177.026,145.885,179.169,146.109,180.631,145.976Z" transform="translate(-134.753 -116.401)" fill="#2f2e41"/>
      <path id="Path_3417" data-name="Path 3417" d="M231.966,498.692S231,526.6,230.43,527.46s0-28.856,0-28.856Z" transform="translate(-186.616 -390.218)" opacity="0.1"/>
      <path id="Path_3418" data-name="Path 3418" d="M283.664,257.607h2.286s9.713,13.142,8.571,14,0,3.142,0,3.142l2.286,4.285s2.857,2.574,2,3.142a10.375,10.375,0,0,0-2,2.857s-5.714-.857-7.428,2.574l-3.705-4.678Z" transform="translate(-227.137 -207.648)" fill="#d0cde1"/>
      <rect id="Rectangle_128" data-name="Rectangle 128" width="8.485" height="15.813" transform="translate(49.491 57.425) rotate(-22.438)" fill="#2f2e41"/>
      <ellipse id="Ellipse_102" data-name="Ellipse 102" cx="1.697" cy="1.559" rx="1.697" ry="1.559" transform="translate(53.656 60.523) rotate(-22.438)" fill="#7478fa"/>
      <path id="Path_3419" data-name="Path 3419" d="M182.193,313.5s-20.57,17.142-24,11.714,3.714-10,3.714-10,6.285.286,13.428-4.285l7.143-3.142s6.52-9.309,8.742-5.765S187.429,311.737,182.193,313.5Z" transform="translate(-131.381 -240.685)" fill="#9f616a"/>
      <path id="Path_3420" data-name="Path 3420" d="M132.392,289.426l-3.142,1.143v8.571l-1.143,1.714s.286,3.428,1.143,4.285,2.574.572,2,2.574a10.828,10.828,0,0,0-.286,4s5.142,6.571,5.424,5.714S140.673,306,141.245,306s-5.714-16.57-5.714-16.57Z" transform="translate(-109.293 -231.753)" fill="#d0cde1"/>
      <path id="Path_3421" data-name="Path 3421" d="M281.767,452.432s2.954-2.857,1.477-3-6.62-3-7.476-1.571S281.767,452.432,281.767,452.432Z" transform="translate(-221.103 -351.476)" fill="#2f2e41"/>
      <ellipse id="Ellipse_103" data-name="Ellipse 103" cx="3.823" cy="1.911" rx="3.823" ry="1.911" transform="translate(112.954 42.434)" fill="#57b894"/>
      <path id="Path_3422" data-name="Path 3422" d="M510.379,222.121a38.226,38.226,0,0,0-27.88,0v-11.39a48.253,48.253,0,0,1,27.88,0Z" transform="translate(-377.769 -170.577)" fill="none" stroke="#3f3d56" stroke-miterlimit="10" stroke-width="2"/>
      <path id="Path_3423" data-name="Path 3423" d="M518.622,224.1a27.588,27.588,0,0,0-20.122,0v-8.224a34.826,34.826,0,0,1,20.122,0Z" transform="translate(-389.89 -174.911)" fill="none" stroke="#3f3d56" stroke-miterlimit="10" stroke-width="2"/>
      <ellipse id="Ellipse_104" data-name="Ellipse 104" cx="3.823" cy="2.294" rx="3.823" ry="2.294" transform="translate(114.484 40.906)" fill="none" stroke="#3f3d56" stroke-miterlimit="10" stroke-width="2"/>
      <ellipse id="Ellipse_105" data-name="Ellipse 105" cx="4.122" cy="2.182" rx="4.122" ry="2.182" transform="translate(114.972 56.67) rotate(-11.535)" fill="#57b894"/>
      <path id="Path_3424" data-name="Path 3424" d="M520.405,271.58a38.226,38.226,0,0,0-27.317,5.575l-2.278-11.162a48.254,48.254,0,0,1,27.317-5.575Z" transform="translate(-384.065 -209.623)" fill="none" stroke="#3f3d56" stroke-miterlimit="10" stroke-width="2"/>
      <path id="Path_3425" data-name="Path 3425" d="M528.519,275.141a27.589,27.589,0,0,0-19.715,4.024l-1.645-8.057a34.826,34.826,0,0,1,19.713-4.02Z" transform="translate(-396.449 -214.716)" fill="none" stroke="#3f3d56" stroke-miterlimit="10" stroke-width="2"/>
      <ellipse id="Ellipse_106" data-name="Ellipse 106" cx="4.122" cy="2.182" rx="4.122" ry="2.182" transform="translate(116.203 55.429) rotate(-11.535)" fill="none" stroke="#3f3d56" stroke-miterlimit="10" stroke-width="2"/>
      <ellipse id="Ellipse_107" data-name="Ellipse 107" cx="2.182" cy="4.122" rx="2.182" ry="4.122" transform="matrix(0.069, -0.998, 0.998, 0.069, 114.329, 73.435)" fill="#57b894"/>
      <path id="Path_3426" data-name="Path 3426" d="M515.524,335.764a38.226,38.226,0,0,0-27.812-1.935l.791-11.367a48.253,48.253,0,0,1,27.812,1.935Z" transform="translate(-381.717 -255.869)" fill="none" stroke="#3f3d56" stroke-miterlimit="10" stroke-width="2"/>
      <path id="Path_3427" data-name="Path 3427" d="M524.423,337.568a27.589,27.589,0,0,0-20.074-1.4l.571-8.2a34.827,34.827,0,0,1,20.074,1.4Z" transform="translate(-394.32 -260.294)" fill="none" stroke="#3f3d56" stroke-miterlimit="10" stroke-width="2"/>
      <ellipse id="Ellipse_108" data-name="Ellipse 108" cx="2.182" cy="4.122" rx="2.182" ry="4.122" transform="matrix(0.069, -0.998, 0.998, 0.069, 115.848, 72.568)" fill="none" stroke="#3f3d56" stroke-miterlimit="10" stroke-width="2"/>
      <path id="Path_3428" data-name="Path 3428" d="M369.982,264.061s-17.818-2.437-30.542,5.019" transform="translate(-269.391 -212.248)" fill="none" stroke="#3f3d56" stroke-miterlimit="10" stroke-width="2"/>
      <path id="Path_3429" data-name="Path 3429" d="M287.957,224.459l.46.146-.724,2.278,2.326.552-.113.472-2.833-.677Z" transform="translate(-217.48 -170.133)" fill="#3f3d56"/>
    </g>
  </g>
</svg>
